<mxfile host="app.diagrams.net" agent="Mozilla/5.0 (Windows NT 10.0; Win64; x64) AppleWebKit/537.36 (KHTML, like Gecko) Chrome/133.0.0.0 Safari/537.36" version="26.0.16" pages="3">
  <diagram id="3S0R9ikytFybtbG1wdAy" name="Página-2">
    <mxGraphModel dx="3807" dy="1895" grid="0" gridSize="10" guides="1" tooltips="1" connect="1" arrows="1" fold="1" page="0" pageScale="1" pageWidth="827" pageHeight="1169" math="0" shadow="0">
      <root>
        <mxCell id="0" />
        <mxCell id="1" parent="0" />
        <mxCell id="bWoDO4_oDenXUGjG4R-w-1" value="" style="ellipse;whiteSpace=wrap;html=1;fillColor=#d5e8d4;strokeColor=#82b366;" vertex="1" parent="1">
          <mxGeometry x="160" y="-178" width="80" height="80" as="geometry" />
        </mxCell>
        <mxCell id="bWoDO4_oDenXUGjG4R-w-2" value="" style="edgeStyle=none;orthogonalLoop=1;jettySize=auto;html=1;rounded=0;fontSize=12;startSize=8;endSize=8;curved=1;" edge="1" parent="1">
          <mxGeometry width="140" relative="1" as="geometry">
            <mxPoint x="198" y="-86" as="sourcePoint" />
            <mxPoint x="198" y="-49" as="targetPoint" />
            <Array as="points" />
          </mxGeometry>
        </mxCell>
        <mxCell id="bWoDO4_oDenXUGjG4R-w-3" value="&lt;font style=&quot;font-size: 14px;&quot;&gt;O SENHOR ESTA NA AREA DE MATEMATICA&lt;/font&gt;" style="whiteSpace=wrap;html=1;fillColor=#dae8fc;strokeColor=#6c8ebf;" vertex="1" parent="1">
          <mxGeometry x="125" y="-51" width="155" height="78" as="geometry" />
        </mxCell>
        <mxCell id="bWoDO4_oDenXUGjG4R-w-5" value="" style="edgeStyle=none;orthogonalLoop=1;jettySize=auto;html=1;rounded=0;fontSize=12;startSize=8;endSize=8;curved=1;" edge="1" parent="1">
          <mxGeometry width="140" relative="1" as="geometry">
            <mxPoint x="198" y="32" as="sourcePoint" />
            <mxPoint x="198" y="88" as="targetPoint" />
            <Array as="points" />
          </mxGeometry>
        </mxCell>
        <mxCell id="bWoDO4_oDenXUGjG4R-w-6" value="&lt;font style=&quot;font-size: 14px;&quot;&gt;TEMOS 4 TIPOS DE CALCULOS&lt;/font&gt;" style="whiteSpace=wrap;html=1;fillColor=#dae8fc;strokeColor=#6c8ebf;" vertex="1" parent="1">
          <mxGeometry x="127" y="91" width="156" height="84" as="geometry" />
        </mxCell>
        <mxCell id="bWoDO4_oDenXUGjG4R-w-7" value="" style="edgeStyle=none;orthogonalLoop=1;jettySize=auto;html=1;rounded=0;fontSize=12;startSize=8;endSize=8;curved=1;" edge="1" parent="1">
          <mxGeometry width="140" relative="1" as="geometry">
            <mxPoint x="87" y="140" as="sourcePoint" />
            <mxPoint x="10" y="140" as="targetPoint" />
            <Array as="points" />
          </mxGeometry>
        </mxCell>
        <mxCell id="bWoDO4_oDenXUGjG4R-w-8" value="&lt;font style=&quot;font-size: 23px;&quot;&gt;+&lt;/font&gt;" style="whiteSpace=wrap;html=1;fillColor=#fff2cc;strokeColor=#d6b656;" vertex="1" parent="1">
          <mxGeometry x="-129" y="108" width="120" height="60" as="geometry" />
        </mxCell>
        <mxCell id="yfc4QbvvwDG0wcQGJku0-13" style="edgeStyle=none;curved=1;rounded=0;orthogonalLoop=1;jettySize=auto;html=1;fontSize=12;startSize=8;endSize=8;" edge="1" parent="1" source="bWoDO4_oDenXUGjG4R-w-9">
          <mxGeometry relative="1" as="geometry">
            <mxPoint x="-247" y="165" as="targetPoint" />
          </mxGeometry>
        </mxCell>
        <mxCell id="bWoDO4_oDenXUGjG4R-w-9" value="&lt;font style=&quot;font-size: 23px;&quot;&gt;-&lt;/font&gt;" style="whiteSpace=wrap;html=1;fillColor=#fff2cc;strokeColor=#d6b656;" vertex="1" parent="1">
          <mxGeometry x="-129" y="182" width="120" height="60" as="geometry" />
        </mxCell>
        <mxCell id="yfc4QbvvwDG0wcQGJku0-19" style="edgeStyle=none;curved=1;rounded=0;orthogonalLoop=1;jettySize=auto;html=1;fontSize=12;startSize=8;endSize=8;" edge="1" parent="1" source="bWoDO4_oDenXUGjG4R-w-10">
          <mxGeometry relative="1" as="geometry">
            <mxPoint x="-250" y="290" as="targetPoint" />
          </mxGeometry>
        </mxCell>
        <mxCell id="bWoDO4_oDenXUGjG4R-w-10" value="&lt;font style=&quot;font-size: 23px;&quot;&gt;/&lt;/font&gt;" style="whiteSpace=wrap;html=1;fillColor=#fff2cc;strokeColor=#d6b656;" vertex="1" parent="1">
          <mxGeometry x="-129" y="260" width="120" height="60" as="geometry" />
        </mxCell>
        <mxCell id="yfc4QbvvwDG0wcQGJku0-20" style="edgeStyle=none;curved=1;rounded=0;orthogonalLoop=1;jettySize=auto;html=1;fontSize=12;startSize=8;endSize=8;" edge="1" parent="1" source="bWoDO4_oDenXUGjG4R-w-11">
          <mxGeometry relative="1" as="geometry">
            <mxPoint x="-209" y="406" as="targetPoint" />
          </mxGeometry>
        </mxCell>
        <mxCell id="bWoDO4_oDenXUGjG4R-w-11" value="&lt;font style=&quot;font-size: 23px;&quot;&gt;x&lt;/font&gt;" style="whiteSpace=wrap;html=1;fillColor=#fff2cc;strokeColor=#d6b656;" vertex="1" parent="1">
          <mxGeometry x="-129" y="338" width="120" height="60" as="geometry" />
        </mxCell>
        <mxCell id="bWoDO4_oDenXUGjG4R-w-12" value="" style="edgeStyle=none;orthogonalLoop=1;jettySize=auto;html=1;rounded=0;fontSize=12;startSize=8;endSize=8;curved=1;" edge="1" parent="1">
          <mxGeometry width="140" relative="1" as="geometry">
            <mxPoint x="200" y="185" as="sourcePoint" />
            <mxPoint x="200" y="238" as="targetPoint" />
            <Array as="points" />
          </mxGeometry>
        </mxCell>
        <mxCell id="bWoDO4_oDenXUGjG4R-w-14" style="edgeStyle=none;curved=1;rounded=0;orthogonalLoop=1;jettySize=auto;html=1;fontSize=12;startSize=8;endSize=8;" edge="1" parent="1" source="bWoDO4_oDenXUGjG4R-w-13">
          <mxGeometry relative="1" as="geometry">
            <mxPoint x="198.25" y="315" as="targetPoint" />
          </mxGeometry>
        </mxCell>
        <mxCell id="bWoDO4_oDenXUGjG4R-w-13" value="&lt;font style=&quot;font-size: 15px;&quot;&gt;iremos fazer todos por hoje, caso você não queira apenas aperte o botão de sair&lt;/font&gt;" style="whiteSpace=wrap;html=1;fillColor=#dae8fc;strokeColor=#6c8ebf;" vertex="1" parent="1">
          <mxGeometry x="112" y="238" width="164" height="94" as="geometry" />
        </mxCell>
        <mxCell id="bWoDO4_oDenXUGjG4R-w-15" value="" style="edgeStyle=none;orthogonalLoop=1;jettySize=auto;html=1;rounded=0;fontSize=12;startSize=8;endSize=8;curved=1;" edge="1" parent="1">
          <mxGeometry width="140" relative="1" as="geometry">
            <mxPoint x="192" y="348" as="sourcePoint" />
            <mxPoint x="192" y="397" as="targetPoint" />
            <Array as="points" />
          </mxGeometry>
        </mxCell>
        <mxCell id="yfc4QbvvwDG0wcQGJku0-11" style="edgeStyle=none;curved=1;rounded=0;orthogonalLoop=1;jettySize=auto;html=1;fontSize=12;startSize=8;endSize=8;" edge="1" parent="1" source="bWoDO4_oDenXUGjG4R-w-16">
          <mxGeometry relative="1" as="geometry">
            <mxPoint x="315" y="461.5" as="targetPoint" />
          </mxGeometry>
        </mxCell>
        <mxCell id="bWoDO4_oDenXUGjG4R-w-16" value="&lt;font style=&quot;font-size: 15px;&quot;&gt;escolha os numeros que voce queira&lt;/font&gt;" style="rhombus;whiteSpace=wrap;html=1;fillColor=#dae8fc;strokeColor=#6c8ebf;" vertex="1" parent="1">
          <mxGeometry x="129" y="398" width="126.25" height="127" as="geometry" />
        </mxCell>
        <mxCell id="bWoDO4_oDenXUGjG4R-w-17" value="" style="edgeStyle=none;orthogonalLoop=1;jettySize=auto;html=1;rounded=0;fontSize=12;startSize=8;endSize=8;curved=1;" edge="1" parent="1">
          <mxGeometry width="140" relative="1" as="geometry">
            <mxPoint x="-74" y="416" as="sourcePoint" />
            <mxPoint x="-74" y="464" as="targetPoint" />
            <Array as="points" />
          </mxGeometry>
        </mxCell>
        <mxCell id="bWoDO4_oDenXUGjG4R-w-18" value="escolha os primeiro que voce queira" style="whiteSpace=wrap;html=1;fillColor=#dae8fc;strokeColor=#6c8ebf;" vertex="1" parent="1">
          <mxGeometry x="-135" y="467" width="139" height="75" as="geometry" />
        </mxCell>
        <mxCell id="bWoDO4_oDenXUGjG4R-w-20" value="" style="edgeStyle=none;orthogonalLoop=1;jettySize=auto;html=1;rounded=0;fontSize=12;startSize=8;endSize=8;curved=1;" edge="1" parent="1">
          <mxGeometry width="140" relative="1" as="geometry">
            <mxPoint x="-64" y="562" as="sourcePoint" />
            <mxPoint x="-64" y="611" as="targetPoint" />
            <Array as="points" />
          </mxGeometry>
        </mxCell>
        <mxCell id="yfc4QbvvwDG0wcQGJku0-36" style="edgeStyle=none;curved=1;rounded=0;orthogonalLoop=1;jettySize=auto;html=1;fontSize=12;startSize=8;endSize=8;" edge="1" parent="1" source="H-FXYFrjYrHOLVvHYRJx-1">
          <mxGeometry relative="1" as="geometry">
            <mxPoint x="117" y="868" as="targetPoint" />
          </mxGeometry>
        </mxCell>
        <mxCell id="H-FXYFrjYrHOLVvHYRJx-1" value="&lt;font style=&quot;font-size: 43px;&quot;&gt;+&lt;/font&gt;" style="whiteSpace=wrap;html=1;fillColor=#fff2cc;strokeColor=#d6b656;" vertex="1" parent="1">
          <mxGeometry x="-137.5" y="633" width="137" height="77" as="geometry" />
        </mxCell>
        <mxCell id="H-FXYFrjYrHOLVvHYRJx-2" value="" style="edgeStyle=none;orthogonalLoop=1;jettySize=auto;html=1;rounded=0;fontSize=12;startSize=8;endSize=8;curved=1;" edge="1" parent="1">
          <mxGeometry width="140" relative="1" as="geometry">
            <mxPoint x="23" y="655" as="sourcePoint" />
            <mxPoint x="161" y="539" as="targetPoint" />
            <Array as="points">
              <mxPoint x="119" y="638" />
            </Array>
          </mxGeometry>
        </mxCell>
        <mxCell id="H-FXYFrjYrHOLVvHYRJx-3" value="" style="edgeStyle=none;orthogonalLoop=1;jettySize=auto;html=1;rounded=0;fontSize=12;startSize=8;endSize=8;curved=1;" edge="1" parent="1">
          <mxGeometry width="140" relative="1" as="geometry">
            <mxPoint x="168" y="553" as="sourcePoint" />
            <mxPoint x="254" y="648" as="targetPoint" />
            <Array as="points">
              <mxPoint x="173" y="654" />
            </Array>
          </mxGeometry>
        </mxCell>
        <mxCell id="H-FXYFrjYrHOLVvHYRJx-5" value="&lt;font style=&quot;font-size: 23px;&quot;&gt;1+1&lt;/font&gt;" style="ellipse;whiteSpace=wrap;html=1;fillColor=#dae8fc;strokeColor=#6c8ebf;" vertex="1" parent="1">
          <mxGeometry x="288" y="592" width="131" height="87" as="geometry" />
        </mxCell>
        <mxCell id="H-FXYFrjYrHOLVvHYRJx-6" value="&lt;font style=&quot;font-size: 43px;&quot;&gt;=&lt;/font&gt;" style="text;html=1;align=center;verticalAlign=middle;resizable=0;points=[];autosize=1;strokeColor=none;fillColor=none;fontSize=16;" vertex="1" parent="1">
          <mxGeometry x="429" y="607" width="43" height="64" as="geometry" />
        </mxCell>
        <mxCell id="yfc4QbvvwDG0wcQGJku0-2" value="&lt;font style=&quot;font-size: 23px;&quot;&gt;2&lt;/font&gt;" style="shape=tape;whiteSpace=wrap;html=1;fillColor=#d5e8d4;strokeColor=#82b366;" vertex="1" parent="1">
          <mxGeometry x="491" y="592" width="120" height="100" as="geometry" />
        </mxCell>
        <mxCell id="yfc4QbvvwDG0wcQGJku0-5" style="edgeStyle=none;curved=1;rounded=0;orthogonalLoop=1;jettySize=auto;html=1;fontSize=12;startSize=8;endSize=8;" edge="1" parent="1" source="yfc4QbvvwDG0wcQGJku0-3">
          <mxGeometry relative="1" as="geometry">
            <mxPoint x="-511" y="298" as="targetPoint" />
          </mxGeometry>
        </mxCell>
        <mxCell id="yfc4QbvvwDG0wcQGJku0-3" value="&lt;font style=&quot;font-size: 23px;&quot;&gt;/&lt;/font&gt;" style="whiteSpace=wrap;html=1;fillColor=#fff2cc;strokeColor=#d6b656;" vertex="1" parent="1">
          <mxGeometry x="-452" y="257" width="140" height="81" as="geometry" />
        </mxCell>
        <mxCell id="yfc4QbvvwDG0wcQGJku0-7" value="" style="edgeStyle=none;orthogonalLoop=1;jettySize=auto;html=1;rounded=0;fontSize=12;startSize=8;endSize=8;curved=1;" edge="1" parent="1">
          <mxGeometry width="140" relative="1" as="geometry">
            <mxPoint x="275" y="280" as="sourcePoint" />
            <mxPoint x="367" y="280" as="targetPoint" />
            <Array as="points" />
          </mxGeometry>
        </mxCell>
        <mxCell id="yfc4QbvvwDG0wcQGJku0-9" value="" style="ellipse;whiteSpace=wrap;html=1;fillColor=#f8cecc;strokeColor=#b85450;" vertex="1" parent="1">
          <mxGeometry x="548" y="234" width="80" height="80" as="geometry" />
        </mxCell>
        <mxCell id="yfc4QbvvwDG0wcQGJku0-10" value="&lt;font style=&quot;font-size: 23px;&quot;&gt;SAIR&lt;/font&gt;" style="ellipse;whiteSpace=wrap;html=1;fillColor=#f8cecc;strokeColor=#b85450;" vertex="1" parent="1">
          <mxGeometry x="387" y="237" width="120" height="80" as="geometry" />
        </mxCell>
        <mxCell id="yfc4QbvvwDG0wcQGJku0-12" value="&lt;font style=&quot;font-size: 23px;&quot;&gt;1&lt;/font&gt;" style="whiteSpace=wrap;html=1;fillColor=#d5e8d4;strokeColor=#82b366;" vertex="1" parent="1">
          <mxGeometry x="331" y="431" width="120" height="60" as="geometry" />
        </mxCell>
        <mxCell id="yfc4QbvvwDG0wcQGJku0-15" style="edgeStyle=none;curved=1;rounded=0;orthogonalLoop=1;jettySize=auto;html=1;fontSize=12;startSize=8;endSize=8;" edge="1" parent="1" source="yfc4QbvvwDG0wcQGJku0-14">
          <mxGeometry relative="1" as="geometry">
            <mxPoint x="-507" y="159.5" as="targetPoint" />
          </mxGeometry>
        </mxCell>
        <mxCell id="yfc4QbvvwDG0wcQGJku0-14" value="&lt;font style=&quot;font-size: 43px;&quot;&gt;-&lt;/font&gt;" style="whiteSpace=wrap;html=1;fillColor=#fff2cc;strokeColor=#d6b656;" vertex="1" parent="1">
          <mxGeometry x="-455" y="116" width="143" height="87" as="geometry" />
        </mxCell>
        <mxCell id="yfc4QbvvwDG0wcQGJku0-17" value="&lt;font style=&quot;font-size: 23px;&quot;&gt;1/1&lt;/font&gt;" style="ellipse;whiteSpace=wrap;html=1;fillColor=#dae8fc;strokeColor=#6c8ebf;" vertex="1" parent="1">
          <mxGeometry x="-658" y="257" width="138" height="80" as="geometry" />
        </mxCell>
        <mxCell id="yfc4QbvvwDG0wcQGJku0-18" value="&lt;font style=&quot;font-size: 23px;&quot;&gt;1-1&lt;/font&gt;" style="ellipse;whiteSpace=wrap;html=1;fillColor=#dae8fc;strokeColor=#6c8ebf;" vertex="1" parent="1">
          <mxGeometry x="-656" y="119.5" width="132" height="80" as="geometry" />
        </mxCell>
        <mxCell id="yfc4QbvvwDG0wcQGJku0-23" style="edgeStyle=none;curved=1;rounded=0;orthogonalLoop=1;jettySize=auto;html=1;fontSize=12;startSize=8;endSize=8;" edge="1" parent="1" source="yfc4QbvvwDG0wcQGJku0-21">
          <mxGeometry relative="1" as="geometry">
            <mxPoint x="-506" y="425.5" as="targetPoint" />
          </mxGeometry>
        </mxCell>
        <mxCell id="yfc4QbvvwDG0wcQGJku0-21" value="&lt;font style=&quot;font-size: 23px;&quot;&gt;X&lt;/font&gt;" style="whiteSpace=wrap;html=1;fillColor=#fff2cc;strokeColor=#d6b656;" vertex="1" parent="1">
          <mxGeometry x="-457.5" y="389" width="151" height="73" as="geometry" />
        </mxCell>
        <mxCell id="yfc4QbvvwDG0wcQGJku0-22" value="&lt;font style=&quot;font-size: 23px;&quot;&gt;1X1&lt;/font&gt;" style="ellipse;whiteSpace=wrap;html=1;fillColor=#dae8fc;strokeColor=#6c8ebf;" vertex="1" parent="1">
          <mxGeometry x="-656" y="389" width="141" height="80" as="geometry" />
        </mxCell>
        <mxCell id="yfc4QbvvwDG0wcQGJku0-24" value="&lt;font style=&quot;font-size: 23px;&quot;&gt;=&lt;/font&gt;" style="text;html=1;align=center;verticalAlign=middle;resizable=0;points=[];autosize=1;strokeColor=none;fillColor=none;fontSize=16;" vertex="1" parent="1">
          <mxGeometry x="-710.5" y="410.5" width="31" height="40" as="geometry" />
        </mxCell>
        <mxCell id="yfc4QbvvwDG0wcQGJku0-25" value="&lt;font style=&quot;font-size: 23px;&quot;&gt;=&lt;/font&gt;" style="text;html=1;align=center;verticalAlign=middle;resizable=0;points=[];autosize=1;strokeColor=none;fillColor=none;fontSize=16;" vertex="1" parent="1">
          <mxGeometry x="-705.5" y="272.5" width="31" height="40" as="geometry" />
        </mxCell>
        <mxCell id="yfc4QbvvwDG0wcQGJku0-26" value="&lt;font style=&quot;font-size: 23px;&quot;&gt;=&lt;/font&gt;" style="text;html=1;align=center;verticalAlign=middle;resizable=0;points=[];autosize=1;strokeColor=none;fillColor=none;fontSize=16;" vertex="1" parent="1">
          <mxGeometry x="-704.5" y="136.5" width="31" height="40" as="geometry" />
        </mxCell>
        <mxCell id="yfc4QbvvwDG0wcQGJku0-27" value="&lt;font style=&quot;font-size: 23px;&quot;&gt;0&lt;/font&gt;" style="shape=tape;whiteSpace=wrap;html=1;fillColor=#d5e8d4;strokeColor=#82b366;" vertex="1" parent="1">
          <mxGeometry x="-872" y="100" width="120" height="100" as="geometry" />
        </mxCell>
        <mxCell id="yfc4QbvvwDG0wcQGJku0-28" value="&lt;font style=&quot;font-size: 24px;&quot;&gt;1&lt;/font&gt;" style="shape=tape;whiteSpace=wrap;html=1;fillColor=#d5e8d4;strokeColor=#82b366;" vertex="1" parent="1">
          <mxGeometry x="-876" y="240" width="120" height="100" as="geometry" />
        </mxCell>
        <mxCell id="yfc4QbvvwDG0wcQGJku0-29" value="&lt;font style=&quot;font-size: 23px;&quot;&gt;1&lt;/font&gt;" style="shape=tape;whiteSpace=wrap;html=1;fillColor=#d5e8d4;strokeColor=#82b366;" vertex="1" parent="1">
          <mxGeometry x="-866" y="414" width="120" height="100" as="geometry" />
        </mxCell>
        <mxCell id="yfc4QbvvwDG0wcQGJku0-31" value="" style="edgeStyle=none;orthogonalLoop=1;jettySize=auto;html=1;rounded=0;fontSize=12;startSize=8;endSize=8;curved=1;" edge="1" parent="1">
          <mxGeometry width="140" relative="1" as="geometry">
            <mxPoint x="-297" y="173" as="sourcePoint" />
            <mxPoint x="57" y="915" as="targetPoint" />
            <Array as="points">
              <mxPoint x="-250" y="735" />
            </Array>
          </mxGeometry>
        </mxCell>
        <mxCell id="yfc4QbvvwDG0wcQGJku0-32" value="" style="edgeStyle=none;orthogonalLoop=1;jettySize=auto;html=1;rounded=0;fontSize=12;startSize=8;endSize=8;curved=1;" edge="1" parent="1">
          <mxGeometry width="140" relative="1" as="geometry">
            <mxPoint x="-299" y="320" as="sourcePoint" />
            <mxPoint x="36" y="961" as="targetPoint" />
            <Array as="points">
              <mxPoint x="-282" y="718" />
            </Array>
          </mxGeometry>
        </mxCell>
        <mxCell id="yfc4QbvvwDG0wcQGJku0-33" value="" style="edgeStyle=none;orthogonalLoop=1;jettySize=auto;html=1;rounded=0;fontSize=12;startSize=8;endSize=8;curved=1;" edge="1" parent="1">
          <mxGeometry width="140" relative="1" as="geometry">
            <mxPoint x="-433" y="478" as="sourcePoint" />
            <mxPoint x="27" y="1017" as="targetPoint" />
            <Array as="points">
              <mxPoint x="-296" y="1042" />
            </Array>
          </mxGeometry>
        </mxCell>
        <mxCell id="yfc4QbvvwDG0wcQGJku0-35" value="&lt;font style=&quot;font-size: 25px;&quot;&gt;imprimir resultado&lt;/font&gt;" style="shape=tape;whiteSpace=wrap;html=1;fillColor=#d5e8d4;strokeColor=#82b366;" vertex="1" parent="1">
          <mxGeometry x="77.5" y="887" width="255" height="162" as="geometry" />
        </mxCell>
      </root>
    </mxGraphModel>
  </diagram>
  <diagram id="HS02gYboRhNqghJ5La4G" name="Página-3">
    <mxGraphModel dx="1434" dy="1222" grid="0" gridSize="10" guides="1" tooltips="1" connect="1" arrows="1" fold="1" page="0" pageScale="1" pageWidth="827" pageHeight="1169" math="0" shadow="0">
      <root>
        <mxCell id="0" />
        <mxCell id="1" parent="0" />
        <mxCell id="hMxK8Nnisg0xX5_XyeXb-3" style="edgeStyle=none;curved=1;rounded=0;orthogonalLoop=1;jettySize=auto;html=1;fontSize=12;startSize=8;endSize=8;" edge="1" parent="1" source="hMxK8Nnisg0xX5_XyeXb-2">
          <mxGeometry relative="1" as="geometry">
            <mxPoint x="201" y="-40" as="targetPoint" />
          </mxGeometry>
        </mxCell>
        <mxCell id="hMxK8Nnisg0xX5_XyeXb-2" value="" style="ellipse;whiteSpace=wrap;html=1;fillColor=#d5e8d4;strokeColor=#82b366;" vertex="1" parent="1">
          <mxGeometry x="161" y="-157" width="80" height="80" as="geometry" />
        </mxCell>
        <mxCell id="hMxK8Nnisg0xX5_XyeXb-6" style="edgeStyle=none;curved=1;rounded=0;orthogonalLoop=1;jettySize=auto;html=1;fontSize=12;startSize=8;endSize=8;" edge="1" parent="1" source="hMxK8Nnisg0xX5_XyeXb-5">
          <mxGeometry relative="1" as="geometry">
            <mxPoint x="201" y="69" as="targetPoint" />
          </mxGeometry>
        </mxCell>
        <mxCell id="hMxK8Nnisg0xX5_XyeXb-5" value="voltaremos aos calculos" style="whiteSpace=wrap;html=1;fillColor=#dae8fc;strokeColor=#6c8ebf;" vertex="1" parent="1">
          <mxGeometry x="141" y="-22" width="120" height="60" as="geometry" />
        </mxCell>
        <mxCell id="hMxK8Nnisg0xX5_XyeXb-11" style="edgeStyle=none;curved=1;rounded=0;orthogonalLoop=1;jettySize=auto;html=1;fontSize=12;startSize=8;endSize=8;" edge="1" parent="1" source="hMxK8Nnisg0xX5_XyeXb-7">
          <mxGeometry relative="1" as="geometry">
            <mxPoint x="325" y="100" as="targetPoint" />
          </mxGeometry>
        </mxCell>
        <mxCell id="hMxK8Nnisg0xX5_XyeXb-12" style="edgeStyle=none;curved=1;rounded=0;orthogonalLoop=1;jettySize=auto;html=1;fontSize=12;startSize=8;endSize=8;" edge="1" parent="1" source="hMxK8Nnisg0xX5_XyeXb-7">
          <mxGeometry relative="1" as="geometry">
            <mxPoint x="334" y="196" as="targetPoint" />
          </mxGeometry>
        </mxCell>
        <mxCell id="hMxK8Nnisg0xX5_XyeXb-7" value="&lt;font&gt;digite os numeros que deseja usar hoje&lt;/font&gt;" style="rhombus;whiteSpace=wrap;html=1;fillColor=#dae8fc;strokeColor=#6c8ebf;" vertex="1" parent="1">
          <mxGeometry x="128.25" y="68" width="145.5" height="139" as="geometry" />
        </mxCell>
        <mxCell id="hMxK8Nnisg0xX5_XyeXb-13" style="edgeStyle=none;curved=1;rounded=0;orthogonalLoop=1;jettySize=auto;html=1;fontSize=12;startSize=8;endSize=8;" edge="1" parent="1" source="hMxK8Nnisg0xX5_XyeXb-9">
          <mxGeometry relative="1" as="geometry">
            <mxPoint x="505" y="87" as="targetPoint" />
          </mxGeometry>
        </mxCell>
        <mxCell id="_5IDJv6E5iBowE2MQrpH-2" style="edgeStyle=none;curved=1;rounded=0;orthogonalLoop=1;jettySize=auto;html=1;fontSize=12;startSize=8;endSize=8;" edge="1" parent="1" source="hMxK8Nnisg0xX5_XyeXb-9">
          <mxGeometry relative="1" as="geometry">
            <mxPoint x="416" y="-16" as="targetPoint" />
          </mxGeometry>
        </mxCell>
        <mxCell id="hMxK8Nnisg0xX5_XyeXb-9" value="&lt;font style=&quot;font-size: 24px;&quot;&gt;12&lt;/font&gt;" style="ellipse;whiteSpace=wrap;html=1;fillColor=#fff2cc;strokeColor=#d6b656;" vertex="1" parent="1">
          <mxGeometry x="337" y="47" width="120" height="80" as="geometry" />
        </mxCell>
        <mxCell id="hMxK8Nnisg0xX5_XyeXb-14" style="edgeStyle=none;curved=1;rounded=0;orthogonalLoop=1;jettySize=auto;html=1;fontSize=12;startSize=8;endSize=8;" edge="1" parent="1" source="hMxK8Nnisg0xX5_XyeXb-10">
          <mxGeometry relative="1" as="geometry">
            <mxPoint x="507" y="194" as="targetPoint" />
          </mxGeometry>
        </mxCell>
        <mxCell id="_5IDJv6E5iBowE2MQrpH-18" style="edgeStyle=none;curved=1;rounded=0;orthogonalLoop=1;jettySize=auto;html=1;fontSize=12;startSize=8;endSize=8;" edge="1" parent="1" source="hMxK8Nnisg0xX5_XyeXb-10">
          <mxGeometry relative="1" as="geometry">
            <mxPoint x="400" y="284" as="targetPoint" />
          </mxGeometry>
        </mxCell>
        <mxCell id="hMxK8Nnisg0xX5_XyeXb-10" value="&lt;font style=&quot;font-size: 24px;&quot;&gt;13&lt;/font&gt;" style="ellipse;whiteSpace=wrap;html=1;fillColor=#fff2cc;strokeColor=#d6b656;" vertex="1" parent="1">
          <mxGeometry x="340" y="154" width="120" height="80" as="geometry" />
        </mxCell>
        <mxCell id="hMxK8Nnisg0xX5_XyeXb-15" value="&lt;font style=&quot;font-size: 20px;&quot;&gt;par&lt;/font&gt;" style="shape=tape;whiteSpace=wrap;html=1;fillColor=#d5e8d4;strokeColor=#82b366;" vertex="1" parent="1">
          <mxGeometry x="515" y="27" width="120" height="100" as="geometry" />
        </mxCell>
        <mxCell id="hMxK8Nnisg0xX5_XyeXb-16" value="&lt;font style=&quot;font-size: 19px;&quot;&gt;impar&lt;/font&gt;" style="shape=tape;whiteSpace=wrap;html=1;fillColor=#d5e8d4;strokeColor=#82b366;" vertex="1" parent="1">
          <mxGeometry x="524" y="144" width="120" height="100" as="geometry" />
        </mxCell>
        <mxCell id="_5IDJv6E5iBowE2MQrpH-6" style="edgeStyle=none;curved=1;rounded=0;orthogonalLoop=1;jettySize=auto;html=1;fontSize=12;startSize=8;endSize=8;" edge="1" parent="1" source="_5IDJv6E5iBowE2MQrpH-5">
          <mxGeometry relative="1" as="geometry">
            <mxPoint x="535" y="-113" as="targetPoint" />
          </mxGeometry>
        </mxCell>
        <mxCell id="_5IDJv6E5iBowE2MQrpH-14" style="edgeStyle=none;curved=1;rounded=0;orthogonalLoop=1;jettySize=auto;html=1;fontSize=12;startSize=8;endSize=8;" edge="1" parent="1" source="_5IDJv6E5iBowE2MQrpH-5">
          <mxGeometry relative="1" as="geometry">
            <mxPoint x="513" y="-215" as="targetPoint" />
          </mxGeometry>
        </mxCell>
        <mxCell id="_5IDJv6E5iBowE2MQrpH-5" value="dividindo esse numero por 2 da ma resultado acima de 0?" style="rhombus;whiteSpace=wrap;html=1;fillColor=#dae8fc;strokeColor=#6c8ebf;" vertex="1" parent="1">
          <mxGeometry x="350" y="-187" width="135" height="148" as="geometry" />
        </mxCell>
        <mxCell id="_5IDJv6E5iBowE2MQrpH-9" value="SIM" style="shape=parallelogram;perimeter=parallelogramPerimeter;whiteSpace=wrap;html=1;fixedSize=1;fillColor=#d5e8d4;strokeColor=#82b366;" vertex="1" parent="1">
          <mxGeometry x="558" y="-176" width="120" height="60" as="geometry" />
        </mxCell>
        <mxCell id="_5IDJv6E5iBowE2MQrpH-13" value="" style="edgeStyle=none;orthogonalLoop=1;jettySize=auto;html=1;rounded=0;fontSize=12;startSize=8;endSize=8;curved=1;" edge="1" parent="1" source="_5IDJv6E5iBowE2MQrpH-9">
          <mxGeometry width="140" relative="1" as="geometry">
            <mxPoint x="706" y="-145" as="sourcePoint" />
            <mxPoint x="666" y="207" as="targetPoint" />
            <Array as="points">
              <mxPoint x="1046" y="214" />
            </Array>
          </mxGeometry>
        </mxCell>
        <mxCell id="_5IDJv6E5iBowE2MQrpH-16" value="NAO" style="shape=parallelogram;perimeter=parallelogramPerimeter;whiteSpace=wrap;html=1;fixedSize=1;fillColor=#f8cecc;strokeColor=#b85450;" vertex="1" parent="1">
          <mxGeometry x="515" y="-297" width="120" height="60" as="geometry" />
        </mxCell>
        <mxCell id="_5IDJv6E5iBowE2MQrpH-17" value="" style="edgeStyle=none;orthogonalLoop=1;jettySize=auto;html=1;rounded=0;fontSize=12;startSize=8;endSize=8;curved=1;exitX=1;exitY=0.75;exitDx=0;exitDy=0;" edge="1" parent="1" source="_5IDJv6E5iBowE2MQrpH-16">
          <mxGeometry width="140" relative="1" as="geometry">
            <mxPoint x="639" y="-262" as="sourcePoint" />
            <mxPoint x="650" y="70" as="targetPoint" />
            <Array as="points">
              <mxPoint x="702" y="-153" />
              <mxPoint x="698" y="-109" />
              <mxPoint x="688" y="-28" />
              <mxPoint x="688" y="59" />
            </Array>
          </mxGeometry>
        </mxCell>
        <mxCell id="_5IDJv6E5iBowE2MQrpH-19" value="&lt;font style=&quot;font-size: 15px;&quot;&gt;SE ALGUM NUMERO DIVIDIDO POR DOIS FOR ACIMA DE 0 ENTAO O MESMO SERIA IMPAR.&lt;/font&gt;&lt;div&gt;&lt;font style=&quot;font-size: 15px;&quot;&gt;&lt;br&gt;&lt;/font&gt;&lt;/div&gt;&lt;div&gt;&lt;font style=&quot;font-size: 15px;&quot;&gt;MAS SE ALGUM NUMERO DIVIDIDO POR 2 FOR 0 ENTAO O MESMO SERIA PAR.&lt;/font&gt;&lt;/div&gt;" style="whiteSpace=wrap;html=1;fillColor=#d5e8d4;strokeColor=#82b366;" vertex="1" parent="1">
          <mxGeometry x="196" y="296" width="437" height="110" as="geometry" />
        </mxCell>
      </root>
    </mxGraphModel>
  </diagram>
  <diagram id="OSz-mh4DYdL9cH4ju8RD" name="Página-4">
    <mxGraphModel dx="1834" dy="2022" grid="0" gridSize="10" guides="1" tooltips="1" connect="1" arrows="1" fold="1" page="0" pageScale="1" pageWidth="827" pageHeight="1169" math="0" shadow="0">
      <root>
        <mxCell id="0" />
        <mxCell id="1" parent="0" />
        <mxCell id="jWhtRKEb1BPocHoZ7X4h-2" style="edgeStyle=none;curved=1;rounded=0;orthogonalLoop=1;jettySize=auto;html=1;fontSize=12;startSize=8;endSize=8;" edge="1" parent="1" source="jWhtRKEb1BPocHoZ7X4h-1">
          <mxGeometry relative="1" as="geometry">
            <mxPoint x="194" y="-991" as="targetPoint" />
          </mxGeometry>
        </mxCell>
        <mxCell id="jWhtRKEb1BPocHoZ7X4h-1" value="" style="ellipse;whiteSpace=wrap;html=1;fillColor=#d5e8d4;strokeColor=#82b366;" vertex="1" parent="1">
          <mxGeometry x="154" y="-1100" width="80" height="80" as="geometry" />
        </mxCell>
        <mxCell id="J4nGh12vcE6tb0wce5ZK-1" style="edgeStyle=none;curved=1;rounded=0;orthogonalLoop=1;jettySize=auto;html=1;fontSize=12;startSize=8;endSize=8;" edge="1" parent="1" source="jWhtRKEb1BPocHoZ7X4h-4">
          <mxGeometry relative="1" as="geometry">
            <mxPoint x="80" y="-844" as="targetPoint" />
          </mxGeometry>
        </mxCell>
        <mxCell id="J4nGh12vcE6tb0wce5ZK-2" style="edgeStyle=none;curved=1;rounded=0;orthogonalLoop=1;jettySize=auto;html=1;fontSize=12;startSize=8;endSize=8;" edge="1" parent="1" source="jWhtRKEb1BPocHoZ7X4h-4">
          <mxGeometry relative="1" as="geometry">
            <mxPoint x="309" y="-843" as="targetPoint" />
          </mxGeometry>
        </mxCell>
        <mxCell id="T_Pmdtg_1rc47YaO9CoJ-3" style="edgeStyle=none;curved=1;rounded=0;orthogonalLoop=1;jettySize=auto;html=1;fontSize=12;startSize=8;endSize=8;" edge="1" parent="1" source="jWhtRKEb1BPocHoZ7X4h-4">
          <mxGeometry relative="1" as="geometry">
            <mxPoint x="194.25" y="-820" as="targetPoint" />
          </mxGeometry>
        </mxCell>
        <mxCell id="jWhtRKEb1BPocHoZ7X4h-4" value="&lt;font style=&quot;font-size: 16px;&quot;&gt;iremos lhe dar o nome de duas pessoas e uma de suas características&lt;/font&gt;" style="whiteSpace=wrap;html=1;fillColor=#dae8fc;strokeColor=#6c8ebf;" vertex="1" parent="1">
          <mxGeometry x="113.5" y="-990" width="161.5" height="124" as="geometry" />
        </mxCell>
        <mxCell id="T_Pmdtg_1rc47YaO9CoJ-5" style="edgeStyle=none;curved=1;rounded=0;orthogonalLoop=1;jettySize=auto;html=1;fontSize=12;startSize=8;endSize=8;" edge="1" parent="1" source="T_Pmdtg_1rc47YaO9CoJ-1">
          <mxGeometry relative="1" as="geometry">
            <mxPoint x="510" y="-728" as="targetPoint" />
          </mxGeometry>
        </mxCell>
        <mxCell id="T_Pmdtg_1rc47YaO9CoJ-1" value="&lt;font style=&quot;font-size: 19px;&quot;&gt;matheus 24 anos&lt;/font&gt;" style="whiteSpace=wrap;html=1;fillColor=#fff2cc;strokeColor=#d6b656;" vertex="1" parent="1">
          <mxGeometry x="355" y="-856" width="171" height="98" as="geometry" />
        </mxCell>
        <mxCell id="T_Pmdtg_1rc47YaO9CoJ-6" style="edgeStyle=none;curved=1;rounded=0;orthogonalLoop=1;jettySize=auto;html=1;fontSize=12;startSize=8;endSize=8;" edge="1" parent="1" source="T_Pmdtg_1rc47YaO9CoJ-2">
          <mxGeometry relative="1" as="geometry">
            <mxPoint x="-119" y="-731" as="targetPoint" />
          </mxGeometry>
        </mxCell>
        <mxCell id="T_Pmdtg_1rc47YaO9CoJ-2" value="&lt;font style=&quot;font-size: 19px;&quot;&gt;bruno 15 anos&amp;nbsp;&lt;/font&gt;" style="whiteSpace=wrap;html=1;fillColor=#fff2cc;strokeColor=#d6b656;" vertex="1" parent="1">
          <mxGeometry x="-95" y="-856" width="161" height="105" as="geometry" />
        </mxCell>
        <mxCell id="T_Pmdtg_1rc47YaO9CoJ-4" value="seu&lt;div&gt;&amp;nbsp;objetivo é falar quem é menor e quem é o menor de idade&amp;nbsp;&lt;/div&gt;" style="shape=parallelogram;perimeter=parallelogramPerimeter;whiteSpace=wrap;html=1;fixedSize=1;fillColor=#dae8fc;strokeColor=#6c8ebf;" vertex="1" parent="1">
          <mxGeometry x="99" y="-810" width="206" height="100" as="geometry" />
        </mxCell>
        <mxCell id="T_Pmdtg_1rc47YaO9CoJ-7" value="&lt;font style=&quot;font-size: 16px;&quot;&gt;maior de idade&lt;/font&gt;" style="shape=tape;whiteSpace=wrap;html=1;fillColor=#d5e8d4;strokeColor=#82b366;" vertex="1" parent="1">
          <mxGeometry x="492" y="-731" width="155" height="125" as="geometry" />
        </mxCell>
        <mxCell id="T_Pmdtg_1rc47YaO9CoJ-8" value="&lt;font style=&quot;font-size: 18px;&quot;&gt;menor e idade&lt;/font&gt;" style="shape=tape;whiteSpace=wrap;html=1;fillColor=#d5e8d4;strokeColor=#82b366;" vertex="1" parent="1">
          <mxGeometry x="-242" y="-721" width="160" height="119" as="geometry" />
        </mxCell>
      </root>
    </mxGraphModel>
  </diagram>
</mxfile>
